<svg xmlns="http://www.w3.org/2000/svg" xmlns:xlink="http://www.w3.org/1999/xlink" version="1.1" class="marks" width="409" height="307" viewBox="0 0 409 307"><rect width="409" height="307" fill="white"/><g fill="none" stroke-miterlimit="10" transform="translate(54,13)"><g class="mark-group role-frame root" role="graphics-object" aria-roledescription="group mark container"><g transform="translate(0,0)"><path class="background" aria-hidden="true" d="M0.5,0.5h350v200h-350Z" stroke="#ddd"/><g><g class="mark-group role-axis" aria-hidden="true"><g transform="translate(0.5,0.5)"><path class="background" aria-hidden="true" d="M0,0h0v0h0Z" pointer-events="none"/><g><g class="mark-rule role-axis-grid" pointer-events="none"><line transform="translate(0,200)" x2="350" y2="0" stroke="#ddd" stroke-width="1" opacity="1"/><line transform="translate(0,150)" x2="350" y2="0" stroke="#ddd" stroke-width="1" opacity="1"/><line transform="translate(0,100)" x2="350" y2="0" stroke="#ddd" stroke-width="1" opacity="1"/><line transform="translate(0,50)" x2="350" y2="0" stroke="#ddd" stroke-width="1" opacity="1"/><line transform="translate(0,0)" x2="350" y2="0" stroke="#ddd" stroke-width="1" opacity="1"/></g></g><path class="foreground" aria-hidden="true" d="" pointer-events="none" display="none"/></g></g><g class="mark-group role-axis" role="graphics-symbol" aria-roledescription="axis" aria-label="X-axis for a discrete scale with 5 values: Naive, IPS, RegressionEM, PairwiseDebias, DLA"><g transform="translate(0.5,200.5)"><path class="background" aria-hidden="true" d="M0,0h0v0h0Z" pointer-events="none"/><g><g class="mark-rule role-axis-tick" pointer-events="none"><line transform="translate(35,0)" x2="0" y2="5" stroke="#888" stroke-width="1" opacity="1"/><line transform="translate(105,0)" x2="0" y2="5" stroke="#888" stroke-width="1" opacity="1"/><line transform="translate(175,0)" x2="0" y2="5" stroke="#888" stroke-width="1" opacity="1"/><line transform="translate(245,0)" x2="0" y2="5" stroke="#888" stroke-width="1" opacity="1"/><line transform="translate(315,0)" x2="0" y2="5" stroke="#888" stroke-width="1" opacity="1"/></g><g class="mark-text role-axis-label" pointer-events="none"><text text-anchor="start" transform="translate(34.5,7) rotate(45) translate(0,13)" font-family="serif" font-size="16px" font-weight="normal" fill="#000" opacity="1">Naive</text><text text-anchor="start" transform="translate(104.5,7) rotate(45) translate(0,13)" font-family="serif" font-size="16px" font-weight="normal" fill="#000" opacity="1">IPS</text><text text-anchor="start" transform="translate(174.5,7) rotate(45) translate(0,13)" font-family="serif" font-size="16px" font-weight="normal" fill="#000" opacity="1">RegressionEM</text><text text-anchor="start" transform="translate(244.5,7) rotate(45) translate(0,13)" font-family="serif" font-size="16px" font-weight="normal" fill="#000" opacity="1">PairwiseDebias</text><text text-anchor="start" transform="translate(314.5,7) rotate(45) translate(0,13)" font-family="serif" font-size="16px" font-weight="normal" fill="#000" opacity="1">DLA</text></g><g class="mark-rule role-axis-domain" pointer-events="none"><line transform="translate(0,0)" x2="350" y2="0" stroke="#888" stroke-width="1" opacity="1"/></g></g><path class="foreground" aria-hidden="true" d="" pointer-events="none" display="none"/></g></g><g class="mark-group role-axis" role="graphics-symbol" aria-roledescription="axis" aria-label="Y-axis titled 'DCG@10' for a linear scale with values from 6.0 to 6.4"><g transform="translate(0.5,0.5)"><path class="background" aria-hidden="true" d="M0,0h0v0h0Z" pointer-events="none"/><g><g class="mark-rule role-axis-tick" pointer-events="none"><line transform="translate(0,200)" x2="-5" y2="0" stroke="#888" stroke-width="1" opacity="1"/><line transform="translate(0,150)" x2="-5" y2="0" stroke="#888" stroke-width="1" opacity="1"/><line transform="translate(0,100)" x2="-5" y2="0" stroke="#888" stroke-width="1" opacity="1"/><line transform="translate(0,50)" x2="-5" y2="0" stroke="#888" stroke-width="1" opacity="1"/><line transform="translate(0,0)" x2="-5" y2="0" stroke="#888" stroke-width="1" opacity="1"/></g><g class="mark-text role-axis-label" pointer-events="none"><text text-anchor="end" transform="translate(-7,205)" font-family="serif" font-size="16px" font-weight="normal" fill="#000" opacity="1">6.0</text><text text-anchor="end" transform="translate(-7,155.00000000000023)" font-family="serif" font-size="16px" font-weight="normal" fill="#000" opacity="1">6.1</text><text text-anchor="end" transform="translate(-7,105)" font-family="serif" font-size="16px" font-weight="normal" fill="#000" opacity="1">6.2</text><text text-anchor="end" transform="translate(-7,55.00000000000022)" font-family="serif" font-size="16px" font-weight="normal" fill="#000" opacity="1">6.3</text><text text-anchor="end" transform="translate(-7,5)" font-family="serif" font-size="16px" font-weight="normal" fill="#000" opacity="1">6.4</text></g><g class="mark-rule role-axis-domain" pointer-events="none"><line transform="translate(0,200)" x2="0" y2="-200" stroke="#888" stroke-width="1" opacity="1"/></g><g class="mark-text role-axis-title" pointer-events="none"><text text-anchor="middle" transform="translate(-31,100) rotate(-90) translate(0,-4)" font-family="serif" font-size="18px" font-weight="normal" fill="#000" opacity="1">DCG@10</text></g></g><path class="foreground" aria-hidden="true" d="" pointer-events="none" display="none"/></g></g><g class="mark-rule role-mark layer_0_marks" role="graphics-object" aria-roledescription="rule mark container"><line aria-label="model: Naive; DCG@10: 6.046; upper_dcg@10: 6.294; dcg@10: 6.17; dcg@10 + std: 6.294; dcg@10 - std: 6.046" role="graphics-symbol" aria-roledescription="errorbar" transform="translate(35,176.9999999999999)" x2="0" y2="-123.99999999999955" stroke="#e45756" stroke-width="2"/><line aria-label="model: IPS; DCG@10: 6.079; upper_dcg@10: 6.309; dcg@10: 6.194; dcg@10 + std: 6.309; dcg@10 - std: 6.079" role="graphics-symbol" aria-roledescription="errorbar" transform="translate(105,160.50000000000017)" x2="0" y2="-115.00000000000011" stroke="#f58518" stroke-width="2"/><line aria-label="model: RegressionEM; DCG@10: 6.051; upper_dcg@10: 6.303; dcg@10: 6.177; dcg@10 + std: 6.303; dcg@10 - std: 6.051" role="graphics-symbol" aria-roledescription="errorbar" transform="translate(175,174.5000000000004)" x2="0" y2="-126.00000000000023" stroke="#54a24b" stroke-width="2"/><line aria-label="model: PairwiseDebias; DCG@10: 6.1; upper_dcg@10: 6.328; dcg@10: 6.214; dcg@10 + std: 6.328; dcg@10 - std: 6.1" role="graphics-symbol" aria-roledescription="errorbar" transform="translate(245,149.99999999999977)" x2="0" y2="-113.99999999999977" stroke="#72b7b2" stroke-width="2"/><line aria-label="model: DLA; DCG@10: 6.219; upper_dcg@10: 6.253; dcg@10: 6.236; dcg@10 + std: 6.253; dcg@10 - std: 6.219" role="graphics-symbol" aria-roledescription="errorbar" transform="translate(315,90.50000000000038)" x2="0" y2="-17.000000000000327" stroke="#4c78a8" stroke-width="2"/></g><g class="mark-symbol role-mark layer_1_marks" role="graphics-object" aria-roledescription="symbol mark container"><path aria-label="model: Naive; DCG@10: 6.17" role="graphics-symbol" aria-roledescription="circle" transform="translate(35,115.00000000000013)" d="M5,0A5,5,0,1,1,-5,0A5,5,0,1,1,5,0" fill="#e45756" stroke-width="2" opacity="1"/><path aria-label="model: IPS; DCG@10: 6.194" role="graphics-symbol" aria-roledescription="circle" transform="translate(105,103.00000000000011)" d="M5,0A5,5,0,1,1,-5,0A5,5,0,1,1,5,0" fill="#f58518" stroke-width="2" opacity="1"/><path aria-label="model: RegressionEM; DCG@10: 6.177" role="graphics-symbol" aria-roledescription="circle" transform="translate(175,111.50000000000028)" d="M5,0A5,5,0,1,1,-5,0A5,5,0,1,1,5,0" fill="#54a24b" stroke-width="2" opacity="1"/><path aria-label="model: PairwiseDebias; DCG@10: 6.214" role="graphics-symbol" aria-roledescription="circle" transform="translate(245,92.99999999999989)" d="M5,0A5,5,0,1,1,-5,0A5,5,0,1,1,5,0" fill="#72b7b2" stroke-width="2" opacity="1"/><path aria-label="model: DLA; DCG@10: 6.236" role="graphics-symbol" aria-roledescription="circle" transform="translate(315,82.00000000000023)" d="M5,0A5,5,0,1,1,-5,0A5,5,0,1,1,5,0" fill="#4c78a8" stroke-width="2" opacity="1"/></g></g><path class="foreground" aria-hidden="true" d="" display="none"/></g></g></g></svg>