<svg xmlns="http://www.w3.org/2000/svg" xmlns:xlink="http://www.w3.org/1999/xlink" version="1.1" class="marks" width="461" height="278" viewBox="0 0 461 278"><rect width="461" height="278" fill="white"/><g fill="none" stroke-miterlimit="10" transform="translate(52,30)"><g class="mark-group role-frame root" role="graphics-object" aria-roledescription="group mark container"><g transform="translate(0,0)"><path class="background" aria-hidden="true" d="M0.5,0.5h400v200h-400Z" stroke="#ddd"/><g><g class="mark-group role-axis" aria-hidden="true"><g transform="translate(0.5,200.5)"><path class="background" aria-hidden="true" d="M0,0h0v0h0Z" pointer-events="none"/><g><g class="mark-rule role-axis-grid" pointer-events="none"><line transform="translate(0,-200)" x2="0" y2="200" stroke="#ddd" stroke-width="1" opacity="1"/><line transform="translate(44,-200)" x2="0" y2="200" stroke="#ddd" stroke-width="1" opacity="1"/><line transform="translate(89,-200)" x2="0" y2="200" stroke="#ddd" stroke-width="1" opacity="1"/><line transform="translate(133,-200)" x2="0" y2="200" stroke="#ddd" stroke-width="1" opacity="1"/><line transform="translate(178,-200)" x2="0" y2="200" stroke="#ddd" stroke-width="1" opacity="1"/><line transform="translate(222,-200)" x2="0" y2="200" stroke="#ddd" stroke-width="1" opacity="1"/><line transform="translate(267,-200)" x2="0" y2="200" stroke="#ddd" stroke-width="1" opacity="1"/><line transform="translate(311,-200)" x2="0" y2="200" stroke="#ddd" stroke-width="1" opacity="1"/><line transform="translate(356,-200)" x2="0" y2="200" stroke="#ddd" stroke-width="1" opacity="1"/><line transform="translate(400,-200)" x2="0" y2="200" stroke="#ddd" stroke-width="1" opacity="1"/></g></g><path class="foreground" aria-hidden="true" d="" pointer-events="none" display="none"/></g></g><g class="mark-group role-axis" aria-hidden="true"><g transform="translate(0.5,0.5)"><path class="background" aria-hidden="true" d="M0,0h0v0h0Z" pointer-events="none"/><g><g class="mark-rule role-axis-grid" pointer-events="none"><line transform="translate(0,200)" x2="400" y2="0" stroke="#ddd" stroke-width="1" opacity="1"/><line transform="translate(0,160)" x2="400" y2="0" stroke="#ddd" stroke-width="1" opacity="1"/><line transform="translate(0,120)" x2="400" y2="0" stroke="#ddd" stroke-width="1" opacity="1"/><line transform="translate(0,80)" x2="400" y2="0" stroke="#ddd" stroke-width="1" opacity="1"/><line transform="translate(0,40)" x2="400" y2="0" stroke="#ddd" stroke-width="1" opacity="1"/><line transform="translate(0,0)" x2="400" y2="0" stroke="#ddd" stroke-width="1" opacity="1"/></g></g><path class="foreground" aria-hidden="true" d="" pointer-events="none" display="none"/></g></g><g class="mark-group role-axis" role="graphics-symbol" aria-roledescription="axis" aria-label="X-axis titled 'Position' for a linear scale with values from 1 to 10"><g transform="translate(0.5,200.5)"><path class="background" aria-hidden="true" d="M0,0h0v0h0Z" pointer-events="none"/><g><g class="mark-rule role-axis-tick" pointer-events="none"><line transform="translate(0,0)" x2="0" y2="5" stroke="#888" stroke-width="1" opacity="1"/><line transform="translate(44,0)" x2="0" y2="5" stroke="#888" stroke-width="1" opacity="1"/><line transform="translate(89,0)" x2="0" y2="5" stroke="#888" stroke-width="1" opacity="1"/><line transform="translate(133,0)" x2="0" y2="5" stroke="#888" stroke-width="1" opacity="1"/><line transform="translate(178,0)" x2="0" y2="5" stroke="#888" stroke-width="1" opacity="1"/><line transform="translate(222,0)" x2="0" y2="5" stroke="#888" stroke-width="1" opacity="1"/><line transform="translate(267,0)" x2="0" y2="5" stroke="#888" stroke-width="1" opacity="1"/><line transform="translate(311,0)" x2="0" y2="5" stroke="#888" stroke-width="1" opacity="1"/><line transform="translate(356,0)" x2="0" y2="5" stroke="#888" stroke-width="1" opacity="1"/><line transform="translate(400,0)" x2="0" y2="5" stroke="#888" stroke-width="1" opacity="1"/></g><g class="mark-text role-axis-label" pointer-events="none"><text text-anchor="start" transform="translate(0,20)" font-family="serif" font-size="16px" font-weight="normal" fill="#000" opacity="1">1</text><text text-anchor="middle" transform="translate(44.44444444444444,20)" font-family="serif" font-size="16px" font-weight="normal" fill="#000" opacity="1">2</text><text text-anchor="middle" transform="translate(88.88888888888889,20)" font-family="serif" font-size="16px" font-weight="normal" fill="#000" opacity="1">3</text><text text-anchor="middle" transform="translate(133.33333333333331,20)" font-family="serif" font-size="16px" font-weight="normal" fill="#000" opacity="1">4</text><text text-anchor="middle" transform="translate(177.77777777777777,20)" font-family="serif" font-size="16px" font-weight="normal" fill="#000" opacity="1">5</text><text text-anchor="middle" transform="translate(222.22222222222223,20)" font-family="serif" font-size="16px" font-weight="normal" fill="#000" opacity="1">6</text><text text-anchor="middle" transform="translate(266.66666666666663,20)" font-family="serif" font-size="16px" font-weight="normal" fill="#000" opacity="1">7</text><text text-anchor="middle" transform="translate(311.11111111111114,20)" font-family="serif" font-size="16px" font-weight="normal" fill="#000" opacity="1">8</text><text text-anchor="middle" transform="translate(355.55555555555554,20)" font-family="serif" font-size="16px" font-weight="normal" fill="#000" opacity="1">9</text><text text-anchor="end" transform="translate(400,20)" font-family="serif" font-size="16px" font-weight="normal" fill="#000" opacity="1">10</text></g><g class="mark-rule role-axis-domain" pointer-events="none"><line transform="translate(0,0)" x2="400" y2="0" stroke="#888" stroke-width="1" opacity="1"/></g><g class="mark-text role-axis-title" pointer-events="none"><text text-anchor="middle" transform="translate(200,40)" font-family="serif" font-size="16px" font-weight="normal" fill="#000" opacity="1">Position</text></g></g><path class="foreground" aria-hidden="true" d="" pointer-events="none" display="none"/></g></g><g class="mark-group role-axis" role="graphics-symbol" aria-roledescription="axis" aria-label="Y-axis titled 'Examination' for a linear scale with values from 0.0 to 1.0"><g transform="translate(0.5,0.5)"><path class="background" aria-hidden="true" d="M0,0h0v0h0Z" pointer-events="none"/><g><g class="mark-rule role-axis-tick" pointer-events="none"><line transform="translate(0,200)" x2="-5" y2="0" stroke="#888" stroke-width="1" opacity="1"/><line transform="translate(0,160)" x2="-5" y2="0" stroke="#888" stroke-width="1" opacity="1"/><line transform="translate(0,120)" x2="-5" y2="0" stroke="#888" stroke-width="1" opacity="1"/><line transform="translate(0,80)" x2="-5" y2="0" stroke="#888" stroke-width="1" opacity="1"/><line transform="translate(0,40)" x2="-5" y2="0" stroke="#888" stroke-width="1" opacity="1"/><line transform="translate(0,0)" x2="-5" y2="0" stroke="#888" stroke-width="1" opacity="1"/></g><g class="mark-text role-axis-label" pointer-events="none"><text text-anchor="end" transform="translate(-7,205)" font-family="serif" font-size="16px" font-weight="normal" fill="#000" opacity="1">0.0</text><text text-anchor="end" transform="translate(-7,165)" font-family="serif" font-size="16px" font-weight="normal" fill="#000" opacity="1">0.2</text><text text-anchor="end" transform="translate(-7,125)" font-family="serif" font-size="16px" font-weight="normal" fill="#000" opacity="1">0.4</text><text text-anchor="end" transform="translate(-7,85)" font-family="serif" font-size="16px" font-weight="normal" fill="#000" opacity="1">0.6</text><text text-anchor="end" transform="translate(-7,44.99999999999999)" font-family="serif" font-size="16px" font-weight="normal" fill="#000" opacity="1">0.8</text><text text-anchor="end" transform="translate(-7,5)" font-family="serif" font-size="16px" font-weight="normal" fill="#000" opacity="1">1.0</text></g><g class="mark-rule role-axis-domain" pointer-events="none"><line transform="translate(0,200)" x2="0" y2="-200" stroke="#888" stroke-width="1" opacity="1"/></g><g class="mark-text role-axis-title" pointer-events="none"><text text-anchor="middle" transform="translate(-31,100) rotate(-90) translate(0,-3)" font-family="serif" font-size="16px" font-weight="normal" fill="#000" opacity="1">Examination</text></g></g><path class="foreground" aria-hidden="true" d="" pointer-events="none" display="none"/></g></g><g class="mark-group role-scope layer_0_layer_0_pathgroup" role="graphics-object" aria-roledescription="group mark container"><g transform="translate(0,0)"><path class="background" aria-hidden="true" d="M0,0h400v200h-400Z"/><g><g class="mark-line role-mark layer_0_layer_0_marks" role="graphics-object" aria-roledescription="line mark container"><path aria-label="Position: 1; Examination: 1; name: CTR" role="graphics-symbol" aria-roledescription="line mark" d="M0,0L44.444,98.054L88.889,147.674L133.333,159.459L177.778,175.221L222.222,180.503L266.667,184.407L311.111,188.306L355.556,191.188L400,195.048" stroke="#4c78a8" stroke-width="2" stroke-dasharray="8,2" opacity="1"/></g></g><path class="foreground" aria-hidden="true" d="" display="none"/></g></g><g class="mark-symbol role-mark layer_0_layer_1_marks" role="graphics-object" aria-roledescription="symbol mark container"><path aria-label="Position: 1; Examination: 1; name: CTR" role="graphics-symbol" aria-roledescription="point" transform="translate(0,0)" d="M3.873,0A3.873,3.873,0,1,1,-3.873,0A3.873,3.873,0,1,1,3.873,0" fill="#4c78a8" stroke-width="2" opacity="1"/><path aria-label="Position: 2; Examination: 0.509728979061; name: CTR" role="graphics-symbol" aria-roledescription="point" transform="translate(44.44444444444444,98.05420418785324)" d="M3.873,0A3.873,3.873,0,1,1,-3.873,0A3.873,3.873,0,1,1,3.873,0" fill="#4c78a8" stroke-width="2" opacity="1"/><path aria-label="Position: 3; Examination: 0.261632162529; name: CTR" role="graphics-symbol" aria-roledescription="point" transform="translate(88.88888888888889,147.6735674942189)" d="M3.873,0A3.873,3.873,0,1,1,-3.873,0A3.873,3.873,0,1,1,3.873,0" fill="#4c78a8" stroke-width="2" opacity="1"/><path aria-label="Position: 4; Examination: 0.202704267268; name: CTR" role="graphics-symbol" aria-roledescription="point" transform="translate(133.33333333333331,159.4591465463587)" d="M3.873,0A3.873,3.873,0,1,1,-3.873,0A3.873,3.873,0,1,1,3.873,0" fill="#4c78a8" stroke-width="2" opacity="1"/><path aria-label="Position: 5; Examination: 0.123896541702; name: CTR" role="graphics-symbol" aria-roledescription="point" transform="translate(177.77777777777777,175.2206916596469)" d="M3.873,0A3.873,3.873,0,1,1,-3.873,0A3.873,3.873,0,1,1,3.873,0" fill="#4c78a8" stroke-width="2" opacity="1"/><path aria-label="Position: 6; Examination: 0.0974831859898; name: CTR" role="graphics-symbol" aria-roledescription="point" transform="translate(222.22222222222223,180.50336280204624)" d="M3.873,0A3.873,3.873,0,1,1,-3.873,0A3.873,3.873,0,1,1,3.873,0" fill="#4c78a8" stroke-width="2" opacity="1"/><path aria-label="Position: 7; Examination: 0.0779626698086; name: CTR" role="graphics-symbol" aria-roledescription="point" transform="translate(266.66666666666663,184.40746603828288)" d="M3.873,0A3.873,3.873,0,1,1,-3.873,0A3.873,3.873,0,1,1,3.873,0" fill="#4c78a8" stroke-width="2" opacity="1"/><path aria-label="Position: 8; Examination: 0.0584677209676; name: CTR" role="graphics-symbol" aria-roledescription="point" transform="translate(311.11111111111114,188.30645580647564)" d="M3.873,0A3.873,3.873,0,1,1,-3.873,0A3.873,3.873,0,1,1,3.873,0" fill="#4c78a8" stroke-width="2" opacity="1"/><path aria-label="Position: 9; Examination: 0.0440616363928; name: CTR" role="graphics-symbol" aria-roledescription="point" transform="translate(355.55555555555554,191.18767272144447)" d="M3.873,0A3.873,3.873,0,1,1,-3.873,0A3.873,3.873,0,1,1,3.873,0" fill="#4c78a8" stroke-width="2" opacity="1"/><path aria-label="Position: 10; Examination: 0.0247579662878; name: CTR" role="graphics-symbol" aria-roledescription="point" transform="translate(400,195.04840674244454)" d="M3.873,0A3.873,3.873,0,1,1,-3.873,0A3.873,3.873,0,1,1,3.873,0" fill="#4c78a8" stroke-width="2" opacity="1"/></g><g class="mark-group role-scope layer_1_layer_0_pathgroup" role="graphics-object" aria-roledescription="group mark container"><g transform="translate(0,0)"><path class="background" aria-hidden="true" d="M0,0h400v200h-400Z"/><g><g class="mark-line role-mark layer_1_layer_0_marks" role="graphics-object" aria-roledescription="line mark container"><path aria-label="Position: 1; Examination: 1; name: All Pairs" role="graphics-symbol" aria-roledescription="line mark" d="M0,0L44.444,65.244L88.889,117.105L133.333,141.359L177.778,158.428L222.222,165.71L266.667,172.739L311.111,176.688L355.556,183.244L400,188.419" stroke="#72b7b2" stroke-width="3" opacity="0.9"/></g></g><path class="foreground" aria-hidden="true" d="" display="none"/></g><g transform="translate(0,0)"><path class="background" aria-hidden="true" d="M0,0h400v200h-400Z"/><g><g class="mark-line role-mark layer_1_layer_0_marks" role="graphics-object" aria-roledescription="line mark container"><path aria-label="Position: 1; Examination: 1; name: Adjacent Chain" role="graphics-symbol" aria-roledescription="line mark" d="M0,0L44.444,63.188L88.889,111.022L133.333,135.705L177.778,155.428L222.222,164.517L266.667,172.776L311.111,176.554L355.556,183.406L400,190.108" stroke="#e45756" stroke-width="3" opacity="0.9"/></g></g><path class="foreground" aria-hidden="true" d="" display="none"/></g><g transform="translate(0,0)"><path class="background" aria-hidden="true" d="M0,0h400v200h-400Z"/><g><g class="mark-line role-mark layer_1_layer_0_marks" role="graphics-object" aria-roledescription="line mark container"><path aria-label="Position: 1; Examination: 1; name: Pivot One" role="graphics-symbol" aria-roledescription="line mark" d="M0,0L44.444,63.188L88.889,110.482L133.333,134.77L177.778,156.707L222.222,159.669L266.667,165.98L311.111,175.336L355.556,181.285L400,172.842" stroke="#f58518" stroke-width="3" opacity="0.9"/></g></g><path class="foreground" aria-hidden="true" d="" display="none"/></g></g><g class="mark-symbol role-mark layer_1_layer_1_marks" role="graphics-object" aria-roledescription="symbol mark container"><path aria-label="Position: 1; Examination: 1; name: All Pairs" role="graphics-symbol" aria-roledescription="point" transform="translate(0,0)" d="M3.873,0A3.873,3.873,0,1,1,-3.873,0A3.873,3.873,0,1,1,3.873,0" fill="#72b7b2" stroke-width="2" opacity="1"/><path aria-label="Position: 2; Examination: 0.673779428005; name: All Pairs" role="graphics-symbol" aria-roledescription="point" transform="translate(44.44444444444444,65.2441143989563)" d="M3.873,0A3.873,3.873,0,1,1,-3.873,0A3.873,3.873,0,1,1,3.873,0" fill="#72b7b2" stroke-width="2" opacity="1"/><path aria-label="Position: 3; Examination: 0.414474189281; name: All Pairs" role="graphics-symbol" aria-roledescription="point" transform="translate(88.88888888888889,117.10516214370728)" d="M3.873,0A3.873,3.873,0,1,1,-3.873,0A3.873,3.873,0,1,1,3.873,0" fill="#72b7b2" stroke-width="2" opacity="1"/><path aria-label="Position: 4; Examination: 0.293204516172; name: All Pairs" role="graphics-symbol" aria-roledescription="point" transform="translate(133.33333333333331,141.3590967655182)" d="M3.873,0A3.873,3.873,0,1,1,-3.873,0A3.873,3.873,0,1,1,3.873,0" fill="#72b7b2" stroke-width="2" opacity="1"/><path aria-label="Position: 5; Examination: 0.207862377167; name: All Pairs" role="graphics-symbol" aria-roledescription="point" transform="translate(177.77777777777777,158.4275245666504)" d="M3.873,0A3.873,3.873,0,1,1,-3.873,0A3.873,3.873,0,1,1,3.873,0" fill="#72b7b2" stroke-width="2" opacity="1"/><path aria-label="Position: 6; Examination: 0.171448841691; name: All Pairs" role="graphics-symbol" aria-roledescription="point" transform="translate(222.22222222222223,165.71023166179657)" d="M3.873,0A3.873,3.873,0,1,1,-3.873,0A3.873,3.873,0,1,1,3.873,0" fill="#72b7b2" stroke-width="2" opacity="1"/><path aria-label="Position: 7; Examination: 0.136307388544; name: All Pairs" role="graphics-symbol" aria-roledescription="point" transform="translate(266.66666666666663,172.73852229118347)" d="M3.873,0A3.873,3.873,0,1,1,-3.873,0A3.873,3.873,0,1,1,3.873,0" fill="#72b7b2" stroke-width="2" opacity="1"/><path aria-label="Position: 8; Examination: 0.116560764611; name: All Pairs" role="graphics-symbol" aria-roledescription="point" transform="translate(311.11111111111114,176.68784707784656)" d="M3.873,0A3.873,3.873,0,1,1,-3.873,0A3.873,3.873,0,1,1,3.873,0" fill="#72b7b2" stroke-width="2" opacity="1"/><path aria-label="Position: 9; Examination: 0.0837790071964; name: All Pairs" role="graphics-symbol" aria-roledescription="point" transform="translate(355.55555555555554,183.24419856071475)" d="M3.873,0A3.873,3.873,0,1,1,-3.873,0A3.873,3.873,0,1,1,3.873,0" fill="#72b7b2" stroke-width="2" opacity="1"/><path aria-label="Position: 10; Examination: 0.0579069145024; name: All Pairs" role="graphics-symbol" aria-roledescription="point" transform="translate(400,188.41861709952357)" d="M3.873,0A3.873,3.873,0,1,1,-3.873,0A3.873,3.873,0,1,1,3.873,0" fill="#72b7b2" stroke-width="2" opacity="1"/><path aria-label="Position: 1; Examination: 1; name: Adjacent Chain" role="graphics-symbol" aria-roledescription="point" transform="translate(0,0)" d="M3.873,0A3.873,3.873,0,1,1,-3.873,0A3.873,3.873,0,1,1,3.873,0" fill="#e45756" stroke-width="2" opacity="1"/><path aria-label="Position: 2; Examination: 0.684061521557; name: Adjacent Chain" role="graphics-symbol" aria-roledescription="point" transform="translate(44.44444444444444,63.1876956885449)" d="M3.873,0A3.873,3.873,0,1,1,-3.873,0A3.873,3.873,0,1,1,3.873,0" fill="#e45756" stroke-width="2" opacity="1"/><path aria-label="Position: 3; Examination: 0.444889217155; name: Adjacent Chain" role="graphics-symbol" aria-roledescription="point" transform="translate(88.88888888888889,111.0221565690347)" d="M3.873,0A3.873,3.873,0,1,1,-3.873,0A3.873,3.873,0,1,1,3.873,0" fill="#e45756" stroke-width="2" opacity="1"/><path aria-label="Position: 4; Examination: 0.321474239804; name: Adjacent Chain" role="graphics-symbol" aria-roledescription="point" transform="translate(133.33333333333331,135.70515203918973)" d="M3.873,0A3.873,3.873,0,1,1,-3.873,0A3.873,3.873,0,1,1,3.873,0" fill="#e45756" stroke-width="2" opacity="1"/><path aria-label="Position: 5; Examination: 0.222861220715; name: Adjacent Chain" role="graphics-symbol" aria-roledescription="point" transform="translate(177.77777777777777,155.42775585709182)" d="M3.873,0A3.873,3.873,0,1,1,-3.873,0A3.873,3.873,0,1,1,3.873,0" fill="#e45756" stroke-width="2" opacity="1"/><path aria-label="Position: 6; Examination: 0.177415967469; name: Adjacent Chain" role="graphics-symbol" aria-roledescription="point" transform="translate(222.22222222222223,164.5168065062396)" d="M3.873,0A3.873,3.873,0,1,1,-3.873,0A3.873,3.873,0,1,1,3.873,0" fill="#e45756" stroke-width="2" opacity="1"/><path aria-label="Position: 7; Examination: 0.136118228506; name: Adjacent Chain" role="graphics-symbol" aria-roledescription="point" transform="translate(266.66666666666663,172.77635429872072)" d="M3.873,0A3.873,3.873,0,1,1,-3.873,0A3.873,3.873,0,1,1,3.873,0" fill="#e45756" stroke-width="2" opacity="1"/><path aria-label="Position: 8; Examination: 0.117231194118; name: Adjacent Chain" role="graphics-symbol" aria-roledescription="point" transform="translate(311.11111111111114,176.55376117631332)" d="M3.873,0A3.873,3.873,0,1,1,-3.873,0A3.873,3.873,0,1,1,3.873,0" fill="#e45756" stroke-width="2" opacity="1"/><path aria-label="Position: 9; Examination: 0.0829681952401; name: Adjacent Chain" role="graphics-symbol" aria-roledescription="point" transform="translate(355.55555555555554,183.4063609519778)" d="M3.873,0A3.873,3.873,0,1,1,-3.873,0A3.873,3.873,0,1,1,3.873,0" fill="#e45756" stroke-width="2" opacity="1"/><path aria-label="Position: 10; Examination: 0.0494620835497; name: Adjacent Chain" role="graphics-symbol" aria-roledescription="point" transform="translate(400,190.10758329005674)" d="M3.873,0A3.873,3.873,0,1,1,-3.873,0A3.873,3.873,0,1,1,3.873,0" fill="#e45756" stroke-width="2" opacity="1"/><path aria-label="Position: 1; Examination: 1; name: Pivot One" role="graphics-symbol" aria-roledescription="point" transform="translate(0,0)" d="M3.873,0A3.873,3.873,0,1,1,-3.873,0A3.873,3.873,0,1,1,3.873,0" fill="#f58518" stroke-width="2" opacity="1"/><path aria-label="Position: 2; Examination: 0.684061521557; name: Pivot One" role="graphics-symbol" aria-roledescription="point" transform="translate(44.44444444444444,63.1876956885449)" d="M3.873,0A3.873,3.873,0,1,1,-3.873,0A3.873,3.873,0,1,1,3.873,0" fill="#f58518" stroke-width="2" opacity="1"/><path aria-label="Position: 3; Examination: 0.447592281731; name: Pivot One" role="graphics-symbol" aria-roledescription="point" transform="translate(88.88888888888889,110.48154365370206)" d="M3.873,0A3.873,3.873,0,1,1,-3.873,0A3.873,3.873,0,1,1,3.873,0" fill="#f58518" stroke-width="2" opacity="1"/><path aria-label="Position: 4; Examination: 0.326151332066; name: Pivot One" role="graphics-symbol" aria-roledescription="point" transform="translate(133.33333333333331,134.769733586815)" d="M3.873,0A3.873,3.873,0,1,1,-3.873,0A3.873,3.873,0,1,1,3.873,0" fill="#f58518" stroke-width="2" opacity="1"/><path aria-label="Position: 5; Examination: 0.21646264442; name: Pivot One" role="graphics-symbol" aria-roledescription="point" transform="translate(177.77777777777777,156.70747111608313)" d="M3.873,0A3.873,3.873,0,1,1,-3.873,0A3.873,3.873,0,1,1,3.873,0" fill="#f58518" stroke-width="2" opacity="1"/><path aria-label="Position: 6; Examination: 0.201653430737; name: Pivot One" role="graphics-symbol" aria-roledescription="point" transform="translate(222.22222222222223,159.6693138525723)" d="M3.873,0A3.873,3.873,0,1,1,-3.873,0A3.873,3.873,0,1,1,3.873,0" fill="#f58518" stroke-width="2" opacity="1"/><path aria-label="Position: 7; Examination: 0.170098292368; name: Pivot One" role="graphics-symbol" aria-roledescription="point" transform="translate(266.66666666666663,165.98034152647608)" d="M3.873,0A3.873,3.873,0,1,1,-3.873,0A3.873,3.873,0,1,1,3.873,0" fill="#f58518" stroke-width="2" opacity="1"/><path aria-label="Position: 8; Examination: 0.123318902502; name: Pivot One" role="graphics-symbol" aria-roledescription="point" transform="translate(311.11111111111114,175.33621949958734)" d="M3.873,0A3.873,3.873,0,1,1,-3.873,0A3.873,3.873,0,1,1,3.873,0" fill="#f58518" stroke-width="2" opacity="1"/><path aria-label="Position: 9; Examination: 0.0935745071835; name: Pivot One" role="graphics-symbol" aria-roledescription="point" transform="translate(355.55555555555554,181.28509856330206)" d="M3.873,0A3.873,3.873,0,1,1,-3.873,0A3.873,3.873,0,1,1,3.873,0" fill="#f58518" stroke-width="2" opacity="1"/><path aria-label="Position: 10; Examination: 0.135791367614; name: Pivot One" role="graphics-symbol" aria-roledescription="point" transform="translate(400,172.84172647719868)" d="M3.873,0A3.873,3.873,0,1,1,-3.873,0A3.873,3.873,0,1,1,3.873,0" fill="#f58518" stroke-width="2" opacity="1"/></g><g class="mark-group role-legend" role="graphics-symbol" aria-roledescription="legend" aria-label="Symbol legend for fill color and stroke color with 4 values: CTR, Pivot One, Adjacent Chain, All Pairs"><g transform="translate(17,-25)"><path class="background" aria-hidden="true" d="M0,0h364v16h-364Z" pointer-events="none"/><g><g class="mark-group role-legend-entry"><g transform="translate(0,0)"><path class="background" aria-hidden="true" d="M0,0h0v0h0Z" pointer-events="none"/><g><g class="mark-group role-scope" role="graphics-object" aria-roledescription="group mark container"><g transform="translate(0,0)"><path class="background" aria-hidden="true" d="M0,0h51.1171875v16h-51.1171875Z" pointer-events="none" opacity="1"/><g><g class="mark-symbol role-legend-symbol" pointer-events="none"><path transform="translate(8,8)" d="M5,0A5,5,0,1,1,-5,0A5,5,0,1,1,5,0" fill="#4c78a8" stroke="#4c78a8" stroke-width="1.5" opacity="1"/></g><g class="mark-text role-legend-label" pointer-events="none"><text text-anchor="start" transform="translate(20,13)" font-family="serif" font-size="16px" fill="#000" opacity="1">CTR</text></g></g><path class="foreground" aria-hidden="true" d="" pointer-events="none" display="none"/></g><g transform="translate(62,0)"><path class="background" aria-hidden="true" d="M0,0h84.4453125v16h-84.4453125Z" pointer-events="none" opacity="1"/><g><g class="mark-symbol role-legend-symbol" pointer-events="none"><path transform="translate(8,8)" d="M5,0A5,5,0,1,1,-5,0A5,5,0,1,1,5,0" fill="#f58518" stroke="#f58518" stroke-width="1.5" opacity="1"/></g><g class="mark-text role-legend-label" pointer-events="none"><text text-anchor="start" transform="translate(20,13)" font-family="serif" font-size="16px" fill="#000" opacity="1">Pivot One</text></g></g><path class="foreground" aria-hidden="true" d="" pointer-events="none" display="none"/></g><g transform="translate(157,0)"><path class="background" aria-hidden="true" d="M0,0h119.96875v16h-119.96875Z" pointer-events="none" opacity="1"/><g><g class="mark-symbol role-legend-symbol" pointer-events="none"><path transform="translate(8,8)" d="M5,0A5,5,0,1,1,-5,0A5,5,0,1,1,5,0" fill="#e45756" stroke="#e45756" stroke-width="1.5" opacity="1"/></g><g class="mark-text role-legend-label" pointer-events="none"><text text-anchor="start" transform="translate(20,13)" font-family="serif" font-size="16px" fill="#000" opacity="1">Adjacent Chain</text></g></g><path class="foreground" aria-hidden="true" d="" pointer-events="none" display="none"/></g><g transform="translate(287,0)"><path class="background" aria-hidden="true" d="M0,0h76.4453125v16h-76.4453125Z" pointer-events="none" opacity="1"/><g><g class="mark-symbol role-legend-symbol" pointer-events="none"><path transform="translate(8,8)" d="M5,0A5,5,0,1,1,-5,0A5,5,0,1,1,5,0" fill="#72b7b2" stroke="#72b7b2" stroke-width="1.5" opacity="1"/></g><g class="mark-text role-legend-label" pointer-events="none"><text text-anchor="start" transform="translate(20,13)" font-family="serif" font-size="16px" fill="#000" opacity="1">All Pairs</text></g></g><path class="foreground" aria-hidden="true" d="" pointer-events="none" display="none"/></g></g></g><path class="foreground" aria-hidden="true" d="" pointer-events="none" display="none"/></g></g></g><path class="foreground" aria-hidden="true" d="" pointer-events="none" display="none"/></g></g></g><path class="foreground" aria-hidden="true" d="" display="none"/></g></g></g></svg>