<svg xmlns="http://www.w3.org/2000/svg" xmlns:xlink="http://www.w3.org/1999/xlink" version="1.1" class="marks" width="486" height="289" viewBox="0 0 486 289"><rect width="486" height="289" fill="white"/><g fill="none" stroke-miterlimit="10" transform="translate(52,41)"><g class="mark-group role-frame root" role="graphics-object" aria-roledescription="group mark container"><g transform="translate(0,0)"><path class="background" aria-hidden="true" d="M0.5,0.5h425v200h-425Z" stroke="#ddd"/><g><g class="mark-group role-axis" aria-hidden="true"><g transform="translate(0.5,200.5)"><path class="background" aria-hidden="true" d="M0,0h0v0h0Z" pointer-events="none"/><g><g class="mark-rule role-axis-grid" pointer-events="none"><line transform="translate(0,-200)" x2="0" y2="200" stroke="#ddd" stroke-width="1" opacity="1"/><line transform="translate(47,-200)" x2="0" y2="200" stroke="#ddd" stroke-width="1" opacity="1"/><line transform="translate(94,-200)" x2="0" y2="200" stroke="#ddd" stroke-width="1" opacity="1"/><line transform="translate(142,-200)" x2="0" y2="200" stroke="#ddd" stroke-width="1" opacity="1"/><line transform="translate(189,-200)" x2="0" y2="200" stroke="#ddd" stroke-width="1" opacity="1"/><line transform="translate(236,-200)" x2="0" y2="200" stroke="#ddd" stroke-width="1" opacity="1"/><line transform="translate(283,-200)" x2="0" y2="200" stroke="#ddd" stroke-width="1" opacity="1"/><line transform="translate(331,-200)" x2="0" y2="200" stroke="#ddd" stroke-width="1" opacity="1"/><line transform="translate(378,-200)" x2="0" y2="200" stroke="#ddd" stroke-width="1" opacity="1"/><line transform="translate(425,-200)" x2="0" y2="200" stroke="#ddd" stroke-width="1" opacity="1"/></g></g><path class="foreground" aria-hidden="true" d="" pointer-events="none" display="none"/></g></g><g class="mark-group role-axis" aria-hidden="true"><g transform="translate(0.5,0.5)"><path class="background" aria-hidden="true" d="M0,0h0v0h0Z" pointer-events="none"/><g><g class="mark-rule role-axis-grid" pointer-events="none"><line transform="translate(0,200)" x2="425" y2="0" stroke="#ddd" stroke-width="1" opacity="1"/><line transform="translate(0,160)" x2="425" y2="0" stroke="#ddd" stroke-width="1" opacity="1"/><line transform="translate(0,120)" x2="425" y2="0" stroke="#ddd" stroke-width="1" opacity="1"/><line transform="translate(0,80)" x2="425" y2="0" stroke="#ddd" stroke-width="1" opacity="1"/><line transform="translate(0,40)" x2="425" y2="0" stroke="#ddd" stroke-width="1" opacity="1"/><line transform="translate(0,0)" x2="425" y2="0" stroke="#ddd" stroke-width="1" opacity="1"/></g></g><path class="foreground" aria-hidden="true" d="" pointer-events="none" display="none"/></g></g><g class="mark-group role-axis" role="graphics-symbol" aria-roledescription="axis" aria-label="X-axis titled 'Position' for a linear scale with values from 1 to 10"><g transform="translate(0.5,200.5)"><path class="background" aria-hidden="true" d="M0,0h0v0h0Z" pointer-events="none"/><g><g class="mark-rule role-axis-tick" pointer-events="none"><line transform="translate(0,0)" x2="0" y2="5" stroke="#888" stroke-width="1" opacity="1"/><line transform="translate(47,0)" x2="0" y2="5" stroke="#888" stroke-width="1" opacity="1"/><line transform="translate(94,0)" x2="0" y2="5" stroke="#888" stroke-width="1" opacity="1"/><line transform="translate(142,0)" x2="0" y2="5" stroke="#888" stroke-width="1" opacity="1"/><line transform="translate(189,0)" x2="0" y2="5" stroke="#888" stroke-width="1" opacity="1"/><line transform="translate(236,0)" x2="0" y2="5" stroke="#888" stroke-width="1" opacity="1"/><line transform="translate(283,0)" x2="0" y2="5" stroke="#888" stroke-width="1" opacity="1"/><line transform="translate(331,0)" x2="0" y2="5" stroke="#888" stroke-width="1" opacity="1"/><line transform="translate(378,0)" x2="0" y2="5" stroke="#888" stroke-width="1" opacity="1"/><line transform="translate(425,0)" x2="0" y2="5" stroke="#888" stroke-width="1" opacity="1"/></g><g class="mark-text role-axis-label" pointer-events="none"><text text-anchor="start" transform="translate(0,20)" font-family="serif" font-size="16px" font-weight="normal" fill="#000" opacity="1">1</text><text text-anchor="middle" transform="translate(47.22222222222222,20)" font-family="serif" font-size="16px" font-weight="normal" fill="#000" opacity="1">2</text><text text-anchor="middle" transform="translate(94.44444444444444,20)" font-family="serif" font-size="16px" font-weight="normal" fill="#000" opacity="1">3</text><text text-anchor="middle" transform="translate(141.66666666666666,20)" font-family="serif" font-size="16px" font-weight="normal" fill="#000" opacity="1">4</text><text text-anchor="middle" transform="translate(188.88888888888889,20)" font-family="serif" font-size="16px" font-weight="normal" fill="#000" opacity="1">5</text><text text-anchor="middle" transform="translate(236.11111111111111,20)" font-family="serif" font-size="16px" font-weight="normal" fill="#000" opacity="1">6</text><text text-anchor="middle" transform="translate(283.3333333333333,20)" font-family="serif" font-size="16px" font-weight="normal" fill="#000" opacity="1">7</text><text text-anchor="middle" transform="translate(330.55555555555554,20)" font-family="serif" font-size="16px" font-weight="normal" fill="#000" opacity="1">8</text><text text-anchor="middle" transform="translate(377.77777777777777,20)" font-family="serif" font-size="16px" font-weight="normal" fill="#000" opacity="1">9</text><text text-anchor="end" transform="translate(425,20)" font-family="serif" font-size="16px" font-weight="normal" fill="#000" opacity="1">10</text></g><g class="mark-rule role-axis-domain" pointer-events="none"><line transform="translate(0,0)" x2="425" y2="0" stroke="#888" stroke-width="1" opacity="1"/></g><g class="mark-text role-axis-title" pointer-events="none"><text text-anchor="middle" transform="translate(212.5,40)" font-family="serif" font-size="16px" font-weight="normal" fill="#000" opacity="1">Position</text></g></g><path class="foreground" aria-hidden="true" d="" pointer-events="none" display="none"/></g></g><g class="mark-group role-axis" role="graphics-symbol" aria-roledescription="axis" aria-label="Y-axis titled 'Normalized Propensity' for a linear scale with values from 0.0 to 1.0"><g transform="translate(0.5,0.5)"><path class="background" aria-hidden="true" d="M0,0h0v0h0Z" pointer-events="none"/><g><g class="mark-rule role-axis-tick" pointer-events="none"><line transform="translate(0,200)" x2="-5" y2="0" stroke="#888" stroke-width="1" opacity="1"/><line transform="translate(0,160)" x2="-5" y2="0" stroke="#888" stroke-width="1" opacity="1"/><line transform="translate(0,120)" x2="-5" y2="0" stroke="#888" stroke-width="1" opacity="1"/><line transform="translate(0,80)" x2="-5" y2="0" stroke="#888" stroke-width="1" opacity="1"/><line transform="translate(0,40)" x2="-5" y2="0" stroke="#888" stroke-width="1" opacity="1"/><line transform="translate(0,0)" x2="-5" y2="0" stroke="#888" stroke-width="1" opacity="1"/></g><g class="mark-text role-axis-label" pointer-events="none"><text text-anchor="end" transform="translate(-7,205)" font-family="serif" font-size="16px" font-weight="normal" fill="#000" opacity="1">0.0</text><text text-anchor="end" transform="translate(-7,165)" font-family="serif" font-size="16px" font-weight="normal" fill="#000" opacity="1">0.2</text><text text-anchor="end" transform="translate(-7,125)" font-family="serif" font-size="16px" font-weight="normal" fill="#000" opacity="1">0.4</text><text text-anchor="end" transform="translate(-7,85)" font-family="serif" font-size="16px" font-weight="normal" fill="#000" opacity="1">0.6</text><text text-anchor="end" transform="translate(-7,44.99999999999999)" font-family="serif" font-size="16px" font-weight="normal" fill="#000" opacity="1">0.8</text><text text-anchor="end" transform="translate(-7,5)" font-family="serif" font-size="16px" font-weight="normal" fill="#000" opacity="1">1.0</text></g><g class="mark-rule role-axis-domain" pointer-events="none"><line transform="translate(0,200)" x2="0" y2="-200" stroke="#888" stroke-width="1" opacity="1"/></g><g class="mark-text role-axis-title" pointer-events="none"><text text-anchor="middle" transform="translate(-31,100) rotate(-90) translate(0,-3)" font-family="serif" font-size="16px" font-weight="normal" fill="#000" opacity="1">Normalized Propensity</text></g></g><path class="foreground" aria-hidden="true" d="" pointer-events="none" display="none"/></g></g><g class="mark-line role-mark layer_0_layer_0_marks" role="graphics-object" aria-roledescription="line mark container"><path aria-label="Position: 1; Normalized Propensity: 1" role="graphics-symbol" aria-roledescription="line mark" d="M0,0L47.222,98.054L94.444,147.674L141.667,159.459L188.889,175.221L236.111,180.503L283.333,184.407L330.556,188.306L377.778,191.188L425,195.048" stroke="#4c78a8" stroke-width="2" stroke-dasharray="8,2" opacity="1"/></g><g class="mark-symbol role-mark layer_0_layer_1_marks" role="graphics-object" aria-roledescription="symbol mark container"><path aria-label="Position: 1; Normalized Propensity: 1" role="graphics-symbol" aria-roledescription="point" transform="translate(0,0)" d="M2.739,0A2.739,2.739,0,1,1,-2.739,0A2.739,2.739,0,1,1,2.739,0" fill="#4c78a8" stroke-width="2" opacity="1"/><path aria-label="Position: 2; Normalized Propensity: 0.509728979061" role="graphics-symbol" aria-roledescription="point" transform="translate(47.22222222222222,98.05420418785324)" d="M2.739,0A2.739,2.739,0,1,1,-2.739,0A2.739,2.739,0,1,1,2.739,0" fill="#4c78a8" stroke-width="2" opacity="1"/><path aria-label="Position: 3; Normalized Propensity: 0.261632162529" role="graphics-symbol" aria-roledescription="point" transform="translate(94.44444444444444,147.6735674942189)" d="M2.739,0A2.739,2.739,0,1,1,-2.739,0A2.739,2.739,0,1,1,2.739,0" fill="#4c78a8" stroke-width="2" opacity="1"/><path aria-label="Position: 4; Normalized Propensity: 0.202704267268" role="graphics-symbol" aria-roledescription="point" transform="translate(141.66666666666666,159.4591465463587)" d="M2.739,0A2.739,2.739,0,1,1,-2.739,0A2.739,2.739,0,1,1,2.739,0" fill="#4c78a8" stroke-width="2" opacity="1"/><path aria-label="Position: 5; Normalized Propensity: 0.123896541702" role="graphics-symbol" aria-roledescription="point" transform="translate(188.88888888888889,175.2206916596469)" d="M2.739,0A2.739,2.739,0,1,1,-2.739,0A2.739,2.739,0,1,1,2.739,0" fill="#4c78a8" stroke-width="2" opacity="1"/><path aria-label="Position: 6; Normalized Propensity: 0.0974831859898" role="graphics-symbol" aria-roledescription="point" transform="translate(236.11111111111111,180.50336280204624)" d="M2.739,0A2.739,2.739,0,1,1,-2.739,0A2.739,2.739,0,1,1,2.739,0" fill="#4c78a8" stroke-width="2" opacity="1"/><path aria-label="Position: 7; Normalized Propensity: 0.0779626698086" role="graphics-symbol" aria-roledescription="point" transform="translate(283.3333333333333,184.40746603828288)" d="M2.739,0A2.739,2.739,0,1,1,-2.739,0A2.739,2.739,0,1,1,2.739,0" fill="#4c78a8" stroke-width="2" opacity="1"/><path aria-label="Position: 8; Normalized Propensity: 0.0584677209676" role="graphics-symbol" aria-roledescription="point" transform="translate(330.55555555555554,188.30645580647564)" d="M2.739,0A2.739,2.739,0,1,1,-2.739,0A2.739,2.739,0,1,1,2.739,0" fill="#4c78a8" stroke-width="2" opacity="1"/><path aria-label="Position: 9; Normalized Propensity: 0.0440616363928" role="graphics-symbol" aria-roledescription="point" transform="translate(377.77777777777777,191.18767272144447)" d="M2.739,0A2.739,2.739,0,1,1,-2.739,0A2.739,2.739,0,1,1,2.739,0" fill="#4c78a8" stroke-width="2" opacity="1"/><path aria-label="Position: 10; Normalized Propensity: 0.0247579662878" role="graphics-symbol" aria-roledescription="point" transform="translate(425,195.04840674244454)" d="M2.739,0A2.739,2.739,0,1,1,-2.739,0A2.739,2.739,0,1,1,2.739,0" fill="#4c78a8" stroke-width="2" opacity="1"/></g><g class="mark-group role-scope layer_1_layer_0_pathgroup" role="graphics-object" aria-roledescription="group mark container"><g transform="translate(0,0)"><path class="background" aria-hidden="true" d="M0,0h425v200h-425Z"/><g><g class="mark-line role-mark layer_1_layer_0_marks" role="graphics-object" aria-roledescription="line mark container"><path aria-label="Position: 1; Normalized Propensity: 1; name: Pivot One" role="graphics-symbol" aria-roledescription="line mark" d="M0,0L47.222,63.188L94.444,110.482L141.667,134.77L188.889,156.707L236.111,159.669L283.333,165.98L330.556,175.336L377.778,181.285L425,172.842" stroke="#fdae6b" stroke-width="2" opacity="0.8"/></g></g><path class="foreground" aria-hidden="true" d="" display="none"/></g><g transform="translate(0,0)"><path class="background" aria-hidden="true" d="M0,0h425v200h-425Z"/><g><g class="mark-line role-mark layer_1_layer_0_marks" role="graphics-object" aria-roledescription="line mark container"><path aria-label="Position: 1; Normalized Propensity: 1; name: Adjacent Chain" role="graphics-symbol" aria-roledescription="line mark" d="M0,0L47.222,63.188L94.444,111.022L141.667,135.705L188.889,155.428L236.111,164.517L283.333,172.776L330.556,176.554L377.778,183.406L425,190.108" stroke="#fd8d3c" stroke-width="2" opacity="0.8"/></g></g><path class="foreground" aria-hidden="true" d="" display="none"/></g><g transform="translate(0,0)"><path class="background" aria-hidden="true" d="M0,0h425v200h-425Z"/><g><g class="mark-line role-mark layer_1_layer_0_marks" role="graphics-object" aria-roledescription="line mark container"><path aria-label="Position: 1; Normalized Propensity: 1; name: All Pairs" role="graphics-symbol" aria-roledescription="line mark" d="M0,0L47.222,65.244L94.444,117.105L141.667,141.359L188.889,158.428L236.111,165.71L283.333,172.739L330.556,176.688L377.778,183.244L425,188.419" stroke="#e6550d" stroke-width="2" opacity="0.8"/></g></g><path class="foreground" aria-hidden="true" d="" display="none"/></g><g transform="translate(0,0)"><path class="background" aria-hidden="true" d="M0,0h425v200h-425Z"/><g><g class="mark-line role-mark layer_1_layer_0_marks" role="graphics-object" aria-roledescription="line mark container"><path aria-label="Position: 1; Normalized Propensity: 1; name: REM" role="graphics-symbol" aria-roledescription="line mark" d="M0,0L47.222,72.342L94.444,116.568L141.667,128.026L188.889,154.404L236.111,164.493L283.333,171.583L330.556,177.423L377.778,183.305L425,186.674" stroke="#31a354" stroke-width="2" opacity="0.8"/></g></g><path class="foreground" aria-hidden="true" d="" display="none"/></g><g transform="translate(0,0)"><path class="background" aria-hidden="true" d="M0,0h425v200h-425Z"/><g><g class="mark-line role-mark layer_1_layer_0_marks" role="graphics-object" aria-roledescription="line mark container"><path aria-label="Position: 1; Normalized Propensity: 1; name: RegressionEM" role="graphics-symbol" aria-roledescription="line mark" d="M0,0L47.222,72.342L94.444,116.568L141.667,128.026L188.889,154.404L236.111,164.493L283.333,171.583L330.556,177.423L377.778,183.305L425,186.674" stroke-width="2" opacity="0.8"/></g></g><path class="foreground" aria-hidden="true" d="" display="none"/></g></g><g class="mark-symbol role-mark layer_1_layer_1_marks" role="graphics-object" aria-roledescription="symbol mark container"><path aria-label="Position: 8; Normalized Propensity: 0.123318902502; name: Pivot One" role="graphics-symbol" aria-roledescription="point" transform="translate(330.55555555555554,175.33621949958734)" d="M2.739,0A2.739,2.739,0,1,1,-2.739,0A2.739,2.739,0,1,1,2.739,0" fill="#fdae6b" stroke-width="2" opacity="1"/><path aria-label="Position: 6; Normalized Propensity: 0.201653430737; name: Pivot One" role="graphics-symbol" aria-roledescription="point" transform="translate(236.11111111111111,159.6693138525723)" d="M2.739,0A2.739,2.739,0,1,1,-2.739,0A2.739,2.739,0,1,1,2.739,0" fill="#fdae6b" stroke-width="2" opacity="1"/><path aria-label="Position: 2; Normalized Propensity: 0.684061521557; name: Pivot One" role="graphics-symbol" aria-roledescription="point" transform="translate(47.22222222222222,63.1876956885449)" d="M2.739,0A2.739,2.739,0,1,1,-2.739,0A2.739,2.739,0,1,1,2.739,0" fill="#fdae6b" stroke-width="2" opacity="1"/><path aria-label="Position: 3; Normalized Propensity: 0.447592281731; name: Pivot One" role="graphics-symbol" aria-roledescription="point" transform="translate(94.44444444444444,110.48154365370206)" d="M2.739,0A2.739,2.739,0,1,1,-2.739,0A2.739,2.739,0,1,1,2.739,0" fill="#fdae6b" stroke-width="2" opacity="1"/><path aria-label="Position: 4; Normalized Propensity: 0.326151332066; name: Pivot One" role="graphics-symbol" aria-roledescription="point" transform="translate(141.66666666666666,134.769733586815)" d="M2.739,0A2.739,2.739,0,1,1,-2.739,0A2.739,2.739,0,1,1,2.739,0" fill="#fdae6b" stroke-width="2" opacity="1"/><path aria-label="Position: 5; Normalized Propensity: 0.21646264442; name: Pivot One" role="graphics-symbol" aria-roledescription="point" transform="translate(188.88888888888889,156.70747111608313)" d="M2.739,0A2.739,2.739,0,1,1,-2.739,0A2.739,2.739,0,1,1,2.739,0" fill="#fdae6b" stroke-width="2" opacity="1"/><path aria-label="Position: 1; Normalized Propensity: 1; name: Pivot One" role="graphics-symbol" aria-roledescription="point" transform="translate(0,0)" d="M2.739,0A2.739,2.739,0,1,1,-2.739,0A2.739,2.739,0,1,1,2.739,0" fill="#fdae6b" stroke-width="2" opacity="1"/><path aria-label="Position: 7; Normalized Propensity: 0.170098292368; name: Pivot One" role="graphics-symbol" aria-roledescription="point" transform="translate(283.3333333333333,165.98034152647608)" d="M2.739,0A2.739,2.739,0,1,1,-2.739,0A2.739,2.739,0,1,1,2.739,0" fill="#fdae6b" stroke-width="2" opacity="1"/><path aria-label="Position: 9; Normalized Propensity: 0.0935745071835; name: Pivot One" role="graphics-symbol" aria-roledescription="point" transform="translate(377.77777777777777,181.28509856330206)" d="M2.739,0A2.739,2.739,0,1,1,-2.739,0A2.739,2.739,0,1,1,2.739,0" fill="#fdae6b" stroke-width="2" opacity="1"/><path aria-label="Position: 10; Normalized Propensity: 0.135791367614; name: Pivot One" role="graphics-symbol" aria-roledescription="point" transform="translate(425,172.84172647719868)" d="M2.739,0A2.739,2.739,0,1,1,-2.739,0A2.739,2.739,0,1,1,2.739,0" fill="#fdae6b" stroke-width="2" opacity="1"/><path aria-label="Position: 2; Normalized Propensity: 0.684061521557; name: Adjacent Chain" role="graphics-symbol" aria-roledescription="point" transform="translate(47.22222222222222,63.1876956885449)" d="M2.739,0A2.739,2.739,0,1,1,-2.739,0A2.739,2.739,0,1,1,2.739,0" fill="#fd8d3c" stroke-width="2" opacity="1"/><path aria-label="Position: 3; Normalized Propensity: 0.444889217155; name: Adjacent Chain" role="graphics-symbol" aria-roledescription="point" transform="translate(94.44444444444444,111.0221565690347)" d="M2.739,0A2.739,2.739,0,1,1,-2.739,0A2.739,2.739,0,1,1,2.739,0" fill="#fd8d3c" stroke-width="2" opacity="1"/><path aria-label="Position: 4; Normalized Propensity: 0.321474239804; name: Adjacent Chain" role="graphics-symbol" aria-roledescription="point" transform="translate(141.66666666666666,135.70515203918973)" d="M2.739,0A2.739,2.739,0,1,1,-2.739,0A2.739,2.739,0,1,1,2.739,0" fill="#fd8d3c" stroke-width="2" opacity="1"/><path aria-label="Position: 5; Normalized Propensity: 0.222861220715; name: Adjacent Chain" role="graphics-symbol" aria-roledescription="point" transform="translate(188.88888888888889,155.42775585709182)" d="M2.739,0A2.739,2.739,0,1,1,-2.739,0A2.739,2.739,0,1,1,2.739,0" fill="#fd8d3c" stroke-width="2" opacity="1"/><path aria-label="Position: 6; Normalized Propensity: 0.177415967469; name: Adjacent Chain" role="graphics-symbol" aria-roledescription="point" transform="translate(236.11111111111111,164.5168065062396)" d="M2.739,0A2.739,2.739,0,1,1,-2.739,0A2.739,2.739,0,1,1,2.739,0" fill="#fd8d3c" stroke-width="2" opacity="1"/><path aria-label="Position: 7; Normalized Propensity: 0.136118228506; name: Adjacent Chain" role="graphics-symbol" aria-roledescription="point" transform="translate(283.3333333333333,172.77635429872072)" d="M2.739,0A2.739,2.739,0,1,1,-2.739,0A2.739,2.739,0,1,1,2.739,0" fill="#fd8d3c" stroke-width="2" opacity="1"/><path aria-label="Position: 8; Normalized Propensity: 0.117231194118; name: Adjacent Chain" role="graphics-symbol" aria-roledescription="point" transform="translate(330.55555555555554,176.55376117631332)" d="M2.739,0A2.739,2.739,0,1,1,-2.739,0A2.739,2.739,0,1,1,2.739,0" fill="#fd8d3c" stroke-width="2" opacity="1"/><path aria-label="Position: 9; Normalized Propensity: 0.0829681952401; name: Adjacent Chain" role="graphics-symbol" aria-roledescription="point" transform="translate(377.77777777777777,183.4063609519778)" d="M2.739,0A2.739,2.739,0,1,1,-2.739,0A2.739,2.739,0,1,1,2.739,0" fill="#fd8d3c" stroke-width="2" opacity="1"/><path aria-label="Position: 10; Normalized Propensity: 0.0494620835497; name: Adjacent Chain" role="graphics-symbol" aria-roledescription="point" transform="translate(425,190.10758329005674)" d="M2.739,0A2.739,2.739,0,1,1,-2.739,0A2.739,2.739,0,1,1,2.739,0" fill="#fd8d3c" stroke-width="2" opacity="1"/><path aria-label="Position: 1; Normalized Propensity: 1; name: Adjacent Chain" role="graphics-symbol" aria-roledescription="point" transform="translate(0,0)" d="M2.739,0A2.739,2.739,0,1,1,-2.739,0A2.739,2.739,0,1,1,2.739,0" fill="#fd8d3c" stroke-width="2" opacity="1"/><path aria-label="Position: 2; Normalized Propensity: 0.673779428005; name: All Pairs" role="graphics-symbol" aria-roledescription="point" transform="translate(47.22222222222222,65.2441143989563)" d="M2.739,0A2.739,2.739,0,1,1,-2.739,0A2.739,2.739,0,1,1,2.739,0" fill="#e6550d" stroke-width="2" opacity="1"/><path aria-label="Position: 1; Normalized Propensity: 1; name: All Pairs" role="graphics-symbol" aria-roledescription="point" transform="translate(0,0)" d="M2.739,0A2.739,2.739,0,1,1,-2.739,0A2.739,2.739,0,1,1,2.739,0" fill="#e6550d" stroke-width="2" opacity="1"/><path aria-label="Position: 10; Normalized Propensity: 0.0579069145024; name: All Pairs" role="graphics-symbol" aria-roledescription="point" transform="translate(425,188.41861709952357)" d="M2.739,0A2.739,2.739,0,1,1,-2.739,0A2.739,2.739,0,1,1,2.739,0" fill="#e6550d" stroke-width="2" opacity="1"/><path aria-label="Position: 5; Normalized Propensity: 0.207862377167; name: All Pairs" role="graphics-symbol" aria-roledescription="point" transform="translate(188.88888888888889,158.4275245666504)" d="M2.739,0A2.739,2.739,0,1,1,-2.739,0A2.739,2.739,0,1,1,2.739,0" fill="#e6550d" stroke-width="2" opacity="1"/><path aria-label="Position: 9; Normalized Propensity: 0.0837790071964; name: All Pairs" role="graphics-symbol" aria-roledescription="point" transform="translate(377.77777777777777,183.24419856071475)" d="M2.739,0A2.739,2.739,0,1,1,-2.739,0A2.739,2.739,0,1,1,2.739,0" fill="#e6550d" stroke-width="2" opacity="1"/><path aria-label="Position: 4; Normalized Propensity: 0.293204516172; name: All Pairs" role="graphics-symbol" aria-roledescription="point" transform="translate(141.66666666666666,141.3590967655182)" d="M2.739,0A2.739,2.739,0,1,1,-2.739,0A2.739,2.739,0,1,1,2.739,0" fill="#e6550d" stroke-width="2" opacity="1"/><path aria-label="Position: 3; Normalized Propensity: 0.414474189281; name: All Pairs" role="graphics-symbol" aria-roledescription="point" transform="translate(94.44444444444444,117.10516214370728)" d="M2.739,0A2.739,2.739,0,1,1,-2.739,0A2.739,2.739,0,1,1,2.739,0" fill="#e6550d" stroke-width="2" opacity="1"/><path aria-label="Position: 6; Normalized Propensity: 0.171448841691; name: All Pairs" role="graphics-symbol" aria-roledescription="point" transform="translate(236.11111111111111,165.71023166179657)" d="M2.739,0A2.739,2.739,0,1,1,-2.739,0A2.739,2.739,0,1,1,2.739,0" fill="#e6550d" stroke-width="2" opacity="1"/><path aria-label="Position: 7; Normalized Propensity: 0.136307388544; name: All Pairs" role="graphics-symbol" aria-roledescription="point" transform="translate(283.3333333333333,172.73852229118347)" d="M2.739,0A2.739,2.739,0,1,1,-2.739,0A2.739,2.739,0,1,1,2.739,0" fill="#e6550d" stroke-width="2" opacity="1"/><path aria-label="Position: 8; Normalized Propensity: 0.116560764611; name: All Pairs" role="graphics-symbol" aria-roledescription="point" transform="translate(330.55555555555554,176.68784707784656)" d="M2.739,0A2.739,2.739,0,1,1,-2.739,0A2.739,2.739,0,1,1,2.739,0" fill="#e6550d" stroke-width="2" opacity="1"/><path aria-label="Position: 8; Normalized Propensity: 0.112883728743; name: REM" role="graphics-symbol" aria-roledescription="point" transform="translate(330.55555555555554,177.4232542514801)" d="M2.739,0A2.739,2.739,0,1,1,-2.739,0A2.739,2.739,0,1,1,2.739,0" fill="#31a354" stroke-width="2" opacity="1"/><path aria-label="Position: 9; Normalized Propensity: 0.0834753498435; name: REM" role="graphics-symbol" aria-roledescription="point" transform="translate(377.77777777777777,183.3049300312996)" d="M2.739,0A2.739,2.739,0,1,1,-2.739,0A2.739,2.739,0,1,1,2.739,0" fill="#31a354" stroke-width="2" opacity="1"/><path aria-label="Position: 1; Normalized Propensity: 1; name: REM" role="graphics-symbol" aria-roledescription="point" transform="translate(0,0)" d="M2.739,0A2.739,2.739,0,1,1,-2.739,0A2.739,2.739,0,1,1,2.739,0" fill="#31a354" stroke-width="2" opacity="1"/><path aria-label="Position: 2; Normalized Propensity: 0.638291537762; name: REM" role="graphics-symbol" aria-roledescription="point" transform="translate(47.22222222222222,72.34169244766235)" d="M2.739,0A2.739,2.739,0,1,1,-2.739,0A2.739,2.739,0,1,1,2.739,0" fill="#31a354" stroke-width="2" opacity="1"/><path aria-label="Position: 3; Normalized Propensity: 0.417158406973; name: REM" role="graphics-symbol" aria-roledescription="point" transform="translate(94.44444444444444,116.56831860542299)" d="M2.739,0A2.739,2.739,0,1,1,-2.739,0A2.739,2.739,0,1,1,2.739,0" fill="#31a354" stroke-width="2" opacity="1"/><path aria-label="Position: 4; Normalized Propensity: 0.35986815691; name: REM" role="graphics-symbol" aria-roledescription="point" transform="translate(141.66666666666666,128.02636861801147)" d="M2.739,0A2.739,2.739,0,1,1,-2.739,0A2.739,2.739,0,1,1,2.739,0" fill="#31a354" stroke-width="2" opacity="1"/><path aria-label="Position: 5; Normalized Propensity: 0.227981373668; name: REM" role="graphics-symbol" aria-roledescription="point" transform="translate(188.88888888888889,154.4037252664566)" d="M2.739,0A2.739,2.739,0,1,1,-2.739,0A2.739,2.739,0,1,1,2.739,0" fill="#31a354" stroke-width="2" opacity="1"/><path aria-label="Position: 6; Normalized Propensity: 0.177535244823; name: REM" role="graphics-symbol" aria-roledescription="point" transform="translate(236.11111111111111,164.49295103549957)" d="M2.739,0A2.739,2.739,0,1,1,-2.739,0A2.739,2.739,0,1,1,2.739,0" fill="#31a354" stroke-width="2" opacity="1"/><path aria-label="Position: 7; Normalized Propensity: 0.142085197568; name: REM" role="graphics-symbol" aria-roledescription="point" transform="translate(283.3333333333333,171.58296048641205)" d="M2.739,0A2.739,2.739,0,1,1,-2.739,0A2.739,2.739,0,1,1,2.739,0" fill="#31a354" stroke-width="2" opacity="1"/><path aria-label="Position: 10; Normalized Propensity: 0.0666303262115; name: REM" role="graphics-symbol" aria-roledescription="point" transform="translate(425,186.6739347577095)" d="M2.739,0A2.739,2.739,0,1,1,-2.739,0A2.739,2.739,0,1,1,2.739,0" fill="#31a354" stroke-width="2" opacity="1"/><path aria-label="Position: 1; Normalized Propensity: 1; name: RegressionEM" role="graphics-symbol" aria-roledescription="point" transform="translate(0,0)" d="M2.739,0A2.739,2.739,0,1,1,-2.739,0A2.739,2.739,0,1,1,2.739,0" stroke-width="2" opacity="1"/><path aria-label="Position: 2; Normalized Propensity: 0.638291537762; name: RegressionEM" role="graphics-symbol" aria-roledescription="point" transform="translate(47.22222222222222,72.34169244766235)" d="M2.739,0A2.739,2.739,0,1,1,-2.739,0A2.739,2.739,0,1,1,2.739,0" stroke-width="2" opacity="1"/><path aria-label="Position: 3; Normalized Propensity: 0.417158406973; name: RegressionEM" role="graphics-symbol" aria-roledescription="point" transform="translate(94.44444444444444,116.56831860542299)" d="M2.739,0A2.739,2.739,0,1,1,-2.739,0A2.739,2.739,0,1,1,2.739,0" stroke-width="2" opacity="1"/><path aria-label="Position: 4; Normalized Propensity: 0.35986815691; name: RegressionEM" role="graphics-symbol" aria-roledescription="point" transform="translate(141.66666666666666,128.02636861801147)" d="M2.739,0A2.739,2.739,0,1,1,-2.739,0A2.739,2.739,0,1,1,2.739,0" stroke-width="2" opacity="1"/><path aria-label="Position: 5; Normalized Propensity: 0.227981373668; name: RegressionEM" role="graphics-symbol" aria-roledescription="point" transform="translate(188.88888888888889,154.4037252664566)" d="M2.739,0A2.739,2.739,0,1,1,-2.739,0A2.739,2.739,0,1,1,2.739,0" stroke-width="2" opacity="1"/><path aria-label="Position: 6; Normalized Propensity: 0.177535244823; name: RegressionEM" role="graphics-symbol" aria-roledescription="point" transform="translate(236.11111111111111,164.49295103549957)" d="M2.739,0A2.739,2.739,0,1,1,-2.739,0A2.739,2.739,0,1,1,2.739,0" stroke-width="2" opacity="1"/><path aria-label="Position: 7; Normalized Propensity: 0.142085197568; name: RegressionEM" role="graphics-symbol" aria-roledescription="point" transform="translate(283.3333333333333,171.58296048641205)" d="M2.739,0A2.739,2.739,0,1,1,-2.739,0A2.739,2.739,0,1,1,2.739,0" stroke-width="2" opacity="1"/><path aria-label="Position: 8; Normalized Propensity: 0.112883728743; name: RegressionEM" role="graphics-symbol" aria-roledescription="point" transform="translate(330.55555555555554,177.4232542514801)" d="M2.739,0A2.739,2.739,0,1,1,-2.739,0A2.739,2.739,0,1,1,2.739,0" stroke-width="2" opacity="1"/><path aria-label="Position: 9; Normalized Propensity: 0.0834753498435; name: RegressionEM" role="graphics-symbol" aria-roledescription="point" transform="translate(377.77777777777777,183.3049300312996)" d="M2.739,0A2.739,2.739,0,1,1,-2.739,0A2.739,2.739,0,1,1,2.739,0" stroke-width="2" opacity="1"/><path aria-label="Position: 10; Normalized Propensity: 0.0666303262115; name: RegressionEM" role="graphics-symbol" aria-roledescription="point" transform="translate(425,186.6739347577095)" d="M2.739,0A2.739,2.739,0,1,1,-2.739,0A2.739,2.739,0,1,1,2.739,0" stroke-width="2" opacity="1"/></g><g class="mark-group role-scope layer_2_layer_0_pathgroup" role="graphics-object" aria-roledescription="group mark container"><g transform="translate(0,0)"><path class="background" aria-hidden="true" d="M0,0h425v200h-425Z"/><g><g class="mark-area role-mark layer_2_layer_0_marks" role="graphics-object" aria-roledescription="area mark container"><path aria-label="Position: 1; Normalized Propensity: 1; upper_examination: 1; name: Pivot One; Ci1 of examination: 1; Ci0 of examination: 1; Mean of examination: 1" role="graphics-symbol" aria-roledescription="errorband" d="M0,0L47.222,63.188L94.444,110.482L141.667,134.77L188.889,156.707L236.111,159.669L283.333,165.98L330.556,175.336L377.778,181.285L425,172.842L425,172.842L377.778,181.285L330.556,175.336L283.333,165.98L236.111,159.669L188.889,156.707L141.667,134.77L94.444,110.482L47.222,63.188L0,0Z" fill="#fdae6b" opacity="0.5"/></g></g><path class="foreground" aria-hidden="true" d="" display="none"/></g><g transform="translate(0,0)"><path class="background" aria-hidden="true" d="M0,0h425v200h-425Z"/><g><g class="mark-area role-mark layer_2_layer_0_marks" role="graphics-object" aria-roledescription="area mark container"><path aria-label="Position: 1; Normalized Propensity: 1; upper_examination: 1; name: Adjacent Chain; Ci1 of examination: 1; Ci0 of examination: 1; Mean of examination: 1" role="graphics-symbol" aria-roledescription="errorband" d="M0,0L47.222,63.188L94.444,111.022L141.667,135.705L188.889,155.428L236.111,164.517L283.333,172.776L330.556,176.554L377.778,183.406L425,190.108L425,190.108L377.778,183.406L330.556,176.554L283.333,172.776L236.111,164.517L188.889,155.428L141.667,135.705L94.444,111.022L47.222,63.188L0,0Z" fill="#fd8d3c" opacity="0.5"/></g></g><path class="foreground" aria-hidden="true" d="" display="none"/></g><g transform="translate(0,0)"><path class="background" aria-hidden="true" d="M0,0h425v200h-425Z"/><g><g class="mark-area role-mark layer_2_layer_0_marks" role="graphics-object" aria-roledescription="area mark container"><path aria-label="Position: 1; Normalized Propensity: 1; upper_examination: 1; name: All Pairs; Ci1 of examination: 1; Ci0 of examination: 1; Mean of examination: 1" role="graphics-symbol" aria-roledescription="errorband" d="M0,0L47.222,65.244L94.444,117.105L141.667,141.359L188.889,158.428L236.111,165.71L283.333,172.739L330.556,176.688L377.778,183.244L425,188.419L425,188.419L377.778,183.244L330.556,176.688L283.333,172.739L236.111,165.71L188.889,158.428L141.667,141.359L94.444,117.105L47.222,65.244L0,0Z" fill="#e6550d" opacity="0.5"/></g></g><path class="foreground" aria-hidden="true" d="" display="none"/></g><g transform="translate(0,0)"><path class="background" aria-hidden="true" d="M0,0h425v200h-425Z"/><g><g class="mark-area role-mark layer_2_layer_0_marks" role="graphics-object" aria-roledescription="area mark container"><path aria-label="Position: 1; Normalized Propensity: 1; upper_examination: 1; name: REM; Ci1 of examination: 1; Ci0 of examination: 1; Mean of examination: 1" role="graphics-symbol" aria-roledescription="errorband" d="M0,0L47.222,72.445L94.444,116.619L141.667,128.227L188.889,154.525L236.111,164.595L283.333,171.678L330.556,177.489L377.778,183.358L425,186.754L425,186.609L377.778,183.265L330.556,177.37L283.333,171.504L236.111,164.41L188.889,154.309L141.667,127.876L94.444,116.515L47.222,72.26L0,0Z" fill="#31a354" opacity="0.5"/></g></g><path class="foreground" aria-hidden="true" d="" display="none"/></g><g transform="translate(0,0)"><path class="background" aria-hidden="true" d="M0,0h425v200h-425Z"/><g><g class="mark-area role-mark layer_2_layer_0_marks" role="graphics-object" aria-roledescription="area mark container"><path aria-label="Position: 1; Normalized Propensity: 1; upper_examination: 1; name: RegressionEM; Ci1 of examination: 1; Ci0 of examination: 1; Mean of examination: 1" role="graphics-symbol" aria-roledescription="errorband" d="M0,0L47.222,72.441L94.444,116.619L141.667,128.212L188.889,154.534L236.111,164.605L283.333,171.683L330.556,177.488L377.778,183.352L425,186.747L425,186.605L377.778,183.265L330.556,177.371L283.333,171.504L236.111,164.409L188.889,154.316L141.667,127.866L94.444,116.518L47.222,72.26L0,0Z" opacity="0.5"/></g></g><path class="foreground" aria-hidden="true" d="" display="none"/></g></g><g class="mark-group role-legend" role="graphics-symbol" aria-roledescription="legend" aria-label="Symbol legend for fill color and stroke color with 5 values: CTR, REM, All Pairs, Adjacent Chain, Pivot One"><g transform="translate(0,-36)"><path class="background" aria-hidden="true" d="M0,0h429v16h-429Z" pointer-events="none"/><g><g class="mark-group role-legend-entry"><g transform="translate(0,0)"><path class="background" aria-hidden="true" d="M0,0h0v0h0Z" pointer-events="none"/><g><g class="mark-group role-scope" role="graphics-object" aria-roledescription="group mark container"><g transform="translate(0,0)"><path class="background" aria-hidden="true" d="M0,0h51.1171875v16h-51.1171875Z" pointer-events="none" opacity="1"/><g><g class="mark-symbol role-legend-symbol" pointer-events="none"><path transform="translate(8,8)" d="M5,0A5,5,0,1,1,-5,0A5,5,0,1,1,5,0" fill="#393b79" stroke="#393b79" stroke-width="1.5" opacity="0.8"/></g><g class="mark-text role-legend-label" pointer-events="none"><text text-anchor="start" transform="translate(20,13)" font-family="serif" font-size="16px" fill="#000" opacity="1">CTR</text></g></g><path class="foreground" aria-hidden="true" d="" pointer-events="none" display="none"/></g><g transform="translate(62,0)"><path class="background" aria-hidden="true" d="M0,0h54.671875v16h-54.671875Z" pointer-events="none" opacity="1"/><g><g class="mark-symbol role-legend-symbol" pointer-events="none"><path transform="translate(8,8)" d="M5,0A5,5,0,1,1,-5,0A5,5,0,1,1,5,0" fill="#31a354" stroke="#31a354" stroke-width="1.5" opacity="0.8"/></g><g class="mark-text role-legend-label" pointer-events="none"><text text-anchor="start" transform="translate(20,13)" font-family="serif" font-size="16px" fill="#000" opacity="1">REM</text></g></g><path class="foreground" aria-hidden="true" d="" pointer-events="none" display="none"/></g><g transform="translate(127,0)"><path class="background" aria-hidden="true" d="M0,0h76.4453125v16h-76.4453125Z" pointer-events="none" opacity="1"/><g><g class="mark-symbol role-legend-symbol" pointer-events="none"><path transform="translate(8,8)" d="M5,0A5,5,0,1,1,-5,0A5,5,0,1,1,5,0" fill="#e6550d" stroke="#e6550d" stroke-width="1.5" opacity="0.8"/></g><g class="mark-text role-legend-label" pointer-events="none"><text text-anchor="start" transform="translate(20,13)" font-family="serif" font-size="16px" fill="#000" opacity="1">All Pairs</text></g></g><path class="foreground" aria-hidden="true" d="" pointer-events="none" display="none"/></g><g transform="translate(214,0)"><path class="background" aria-hidden="true" d="M0,0h119.96875v16h-119.96875Z" pointer-events="none" opacity="1"/><g><g class="mark-symbol role-legend-symbol" pointer-events="none"><path transform="translate(8,8)" d="M5,0A5,5,0,1,1,-5,0A5,5,0,1,1,5,0" fill="#fd8d3c" stroke="#fd8d3c" stroke-width="1.5" opacity="0.8"/></g><g class="mark-text role-legend-label" pointer-events="none"><text text-anchor="start" transform="translate(20,13)" font-family="serif" font-size="16px" fill="#000" opacity="1">Adjacent Chain</text></g></g><path class="foreground" aria-hidden="true" d="" pointer-events="none" display="none"/></g><g transform="translate(344,0)"><path class="background" aria-hidden="true" d="M0,0h84.4453125v16h-84.4453125Z" pointer-events="none" opacity="1"/><g><g class="mark-symbol role-legend-symbol" pointer-events="none"><path transform="translate(8,8)" d="M5,0A5,5,0,1,1,-5,0A5,5,0,1,1,5,0" fill="#fdae6b" stroke="#fdae6b" stroke-width="1.5" opacity="0.8"/></g><g class="mark-text role-legend-label" pointer-events="none"><text text-anchor="start" transform="translate(20,13)" font-family="serif" font-size="16px" fill="#000" opacity="1">Pivot One</text></g></g><path class="foreground" aria-hidden="true" d="" pointer-events="none" display="none"/></g></g></g><path class="foreground" aria-hidden="true" d="" pointer-events="none" display="none"/></g></g></g><path class="foreground" aria-hidden="true" d="" pointer-events="none" display="none"/></g></g></g><path class="foreground" aria-hidden="true" d="" display="none"/></g></g></g></svg>